<?xml version="1.0" encoding="iso-8859-1"?>
<!-- Uploaded to: SVG Repo, www.svgrepo.com, Generator: SVG Repo Mixer Tools -->
<!DOCTYPE svg PUBLIC "-//W3C//DTD SVG 1.1//EN" "http://www.w3.org/Graphics/SVG/1.1/DTD/svg11.dtd">
<svg height="800px" width="800px" version="1.1" id="Capa_1" xmlns="http://www.w3.org/2000/svg" xmlns:xlink="http://www.w3.org/1999/xlink" 
	 viewBox="0 0 420.001 420.001" xml:space="preserve">
<g>
	<path style="fill:#FFFFFF;" d="M157.25,358.257L61.723,262.73l-21.959,21.959c-26.337,26.337-26.337,69.19,0,95.527
		c12.758,12.758,29.722,19.785,47.764,19.785c18.043,0,35.006-7.026,47.764-19.784L157.25,358.257z"/>
	<polygon style="fill:#B3E697;" points="169.156,341.878 173.311,346.033 383.912,237.931 354.306,228.434 	"/>
	<path style="fill:#B3E697;" d="M100.942,213.548c2.885-4.71,9.039-6.189,13.751-3.303c4.709,2.885,6.188,9.042,3.302,13.751
		l-25.349,41.372l23.912,23.912l86.322-86.327c3.904-3.905,10.236-3.906,14.143,0c3.905,3.905,3.905,10.237,0,14.142L130.7,303.422
		l23.912,23.912l186.46-114.247l-14.31-44.612l-46.278-14.844l-35.176,35.18c-1.952,1.953-4.512,2.929-7.071,2.929
		c-2.56,0-5.118-0.976-7.07-2.929c-3.906-3.905-3.906-10.237-0.001-14.142l35.177-35.18l-14.843-46.277l-44.608-14.307
		l-68.096,111.142c-1.886,3.079-5.172,4.777-8.536,4.777c-1.781,0-3.584-0.475-5.215-1.475c-4.709-2.885-6.188-9.042-3.302-13.751
		l69.802-113.926l-9.495-29.603L73.948,246.67l4.155,4.155L100.942,213.548z"/>
	<path d="M419.947,234.972c-0.331-4.032-3.06-7.468-6.912-8.704l-52.091-16.709l-16.709-52.09c-0.986-3.074-3.395-5.482-6.468-6.468
		l-52.089-16.708l-16.706-52.087c-0.986-3.074-3.395-5.483-6.469-6.468l-52.085-16.706L193.712,6.946
		c-1.236-3.852-4.672-6.581-8.704-6.912c-4.035-0.335-7.867,1.801-9.715,5.4L53.543,242.625l-27.922,27.922
		c-34.135,34.135-34.135,89.677,0,123.811c16.536,16.536,38.522,25.642,61.906,25.642c23.386,0,45.37-9.106,61.906-25.642
		l27.922-27.921l237.19-121.75C418.146,242.839,420.278,239.005,419.947,234.972z M173.311,346.033l-4.154-4.154l185.15-113.445
		l29.606,9.497L173.311,346.033z M39.764,380.216c-26.337-26.336-26.337-69.19,0-95.527l21.959-21.959l95.528,95.527l-21.959,21.959
		c-12.758,12.758-29.721,19.784-47.764,19.784C69.486,400.001,52.522,392.974,39.764,380.216z M182.049,36.069l9.495,29.603
		l-69.802,113.926c-2.886,4.709-1.407,10.866,3.302,13.751c1.631,0.999,3.433,1.475,5.215,1.475c3.364,0,6.65-1.698,8.536-4.777
		l68.096-111.142l44.608,14.307l14.843,46.277l-35.177,35.18c-3.905,3.905-3.905,10.237,0.001,14.142
		c1.952,1.953,4.511,2.929,7.07,2.929c2.559,0,5.119-0.977,7.071-2.929l35.176-35.18l46.278,14.844l14.31,44.612l-186.46,114.247
		L130.7,303.422l86.323-86.328c3.905-3.905,3.905-10.237,0-14.142c-3.906-3.905-10.238-3.905-14.143,0l-86.322,86.327
		l-23.912-23.912l25.349-41.372c2.886-4.709,1.407-10.866-3.302-13.751c-4.712-2.886-10.866-1.407-13.751,3.303l-22.839,37.277
		l-4.155-4.155L182.049,36.069z"/>
</g>
</svg>